<svg viewBox="0 0 800 220" xmlns="http://www.w3.org/2000/svg" role="img"
     aria-label="Sala de aula com carteiras em perspetiva; um aluno está sentado à parte, afastado do grupo">
  <defs>
    <linearGradient id="cl-fundo" x1="0" y1="0" x2="0" y2="1">
      <stop offset="0%" stop-color="#141a30"/><stop offset="100%" stop-color="#1a1a2e"/>
    </linearGradient>
    <linearGradient id="cl-chao" x1="0" y1="0" x2="0" y2="1">
      <stop offset="0%" stop-color="#0f3460"/><stop offset="100%" stop-color="#0a2044"/>
    </linearGradient>
    <linearGradient id="cl-quadro" x1="0" y1="0" x2="0" y2="1">
      <stop offset="0%" stop-color="#1e3a5f"/><stop offset="100%" stop-color="#16294a"/>
    </linearGradient>
    <linearGradient id="cl-vinheta" x1="0" y1="0" x2="1" y2="0">
      <stop offset="0%" stop-color="#0a0a18" stop-opacity="0.8"/>
      <stop offset="20%" stop-color="#0a0a18" stop-opacity="0"/>
      <stop offset="80%" stop-color="#0a0a18" stop-opacity="0"/>
      <stop offset="100%" stop-color="#0a0a18" stop-opacity="0.8"/>
    </linearGradient>
    <radialGradient id="cl-luz" cx="0.5" cy="0.1" r="0.8">
      <stop offset="0%" stop-color="#fffacd" stop-opacity="0.16"/>
      <stop offset="100%" stop-color="#fffacd" stop-opacity="0"/>
    </radialGradient>
  </defs>
  <rect width="800" height="220" fill="url(#cl-fundo)"/>
  <rect x="0" y="150" width="800" height="70" fill="url(#cl-chao)"/>
  <g stroke="#16213e" stroke-width="1" opacity="0.5">
    <line x1="-40" y1="220" x2="330" y2="150"/><line x1="180" y1="220" x2="372" y2="150"/>
    <line x1="620" y1="220" x2="428" y2="150"/><line x1="840" y1="220" x2="470" y2="150"/>
  </g>
  <rect x="248" y="34" width="304" height="92" rx="3" fill="url(#cl-quadro)" stroke="#533483" stroke-width="1.5"/>
  <rect x="248" y="126" width="304" height="6" fill="#0f2340"/>
  <g stroke="#a0a0b0" stroke-width="2" stroke-linecap="round" opacity="0.45">
    <line x1="272" y1="58" x2="380" y2="58"/><line x1="272" y1="74" x2="440" y2="74"/>
    <line x1="272" y1="90" x2="352" y2="90"/>
  </g>
  <rect x="470" y="102" width="58" height="4" rx="2" fill="#e0e0e0" opacity="0.25"/>
  <g opacity="0.55">
    <polygon points="60,40 128,50 128,116 60,124" fill="#1f3a5c"/>
    <polygon points="140,52 190,60 190,112 140,118" fill="#1f3a5c"/>
    <polygon points="740,40 672,50 672,116 740,124" fill="#1f3a5c"/>
    <polygon points="660,52 610,60 610,112 660,118" fill="#1f3a5c"/>
  </g>
  <rect width="800" height="150" fill="url(#cl-luz)"/>
  <g opacity="0.9">
    <rect x="322" y="132" width="46" height="20" rx="2" fill="#141d36"/>
    <circle cx="336" cy="126" r="6" fill="#232a45"/><circle cx="354" cy="126" r="6" fill="#232a45"/>
    <rect x="386" y="132" width="46" height="20" rx="2" fill="#141d36"/>
    <circle cx="404" cy="126" r="6" fill="#232a45"/>
  </g>
  <g>
    <rect x="252" y="152" width="76" height="30" rx="3" fill="#16213e" stroke="#533483" stroke-width="1"/>
    <circle cx="290" cy="144" r="9" fill="#8a5fbf"/>
    <path d="M282 152 h16 l2 12 h-20 z" fill="#8a5fbf"/>
    <rect x="342" y="152" width="76" height="30" rx="3" fill="#16213e" stroke="#533483" stroke-width="1"/>
    <circle cx="380" cy="144" r="9" fill="#c94a5e"/>
    <path d="M372 152 h16 l2 12 h-20 z" fill="#c94a5e"/>
    <rect x="432" y="152" width="76" height="30" rx="3" fill="#16213e" stroke="#533483" stroke-width="1"/>
    <circle cx="470" cy="144" r="9" fill="#8a5fbf"/>
    <path d="M462 152 h16 l2 12 h-20 z" fill="#8a5fbf"/>
  </g>
  <g>
    <ellipse cx="646" cy="196" rx="52" ry="7" fill="#000" opacity="0.3"/>
    <rect x="590" y="168" width="112" height="34" rx="4" fill="#16213e" stroke="#4a90d9" stroke-width="1.2"/>
    <circle cx="646" cy="158" r="12" fill="#4a90d9"/>
    <path d="M634 170 h24 l3 14 h-30 z" fill="#4a90d9"/>
    <rect x="618" y="176" width="26" height="16" rx="2" fill="#e6e6dc" opacity="0.5"/>
  </g>
  <rect width="800" height="220" fill="url(#cl-vinheta)"/>
  <text x="400" y="212" text-anchor="middle" fill="#a0a0b0"
        font-size="12" font-family="Arial, sans-serif" letter-spacing="1.5">SALA DE AULA — TRABALHO DE GRUPO</text>
</svg>
